<svg xmlns="http://www.w3.org/2000/svg" width="68.72" height="69.751" viewBox="0 0 68.72 69.751">
  <g id="Group_351" data-name="Group 351" transform="translate(-2.25 -2.014)">
    <path id="Path_271" data-name="Path 271" d="M4.876,34.132a2.173,2.173,0,0,1,0-3.076L21.347,14.585A6.559,6.559,0,0,1,28.764,13.3l13,6.109a2.173,2.173,0,0,0,2.465-.436L60.55,2.652a2.2,2.2,0,0,1,3.1,0,2.172,2.172,0,0,1,0,3.076l-16.34,16.34a6.559,6.559,0,0,1-7.417,1.287L26.91,17.247a2.232,2.232,0,0,0-2.487.414L7.973,34.132a2.213,2.213,0,0,1-3.1,0Z" transform="translate(2.348 0)" fill="#fdfdfe"/>
    <g id="Group_350" data-name="Group 350" transform="translate(2.25 20.672)">
      <path id="Path_272" data-name="Path 272" d="M23.84,21.949V49a4.362,4.362,0,0,1-4.363,4.363H15.113A4.362,4.362,0,0,1,10.75,49V21.949a4.376,4.376,0,0,1,4.363-4.363h4.363a4.376,4.376,0,0,1,4.363,4.363Z" transform="translate(7.794 -2.271)" fill="#fdfdfe"/>
      <path id="Path_273" data-name="Path 273" d="M40.84,14.929V57.3a4.362,4.362,0,0,1-4.363,4.363H32.113A4.362,4.362,0,0,1,27.75,57.3V14.929a4.376,4.376,0,0,1,4.363-4.363h4.363a4.376,4.376,0,0,1,4.363,4.363Z" transform="translate(27.881 -10.566)" fill="#fdfdfe"/>
      <path id="Path_274" data-name="Path 274" d="M15.34,30.889v7.548A4.362,4.362,0,0,1,10.976,42.8H6.613A4.362,4.362,0,0,1,2.25,38.438V30.889a4.376,4.376,0,0,1,4.363-4.363h4.363a4.376,4.376,0,0,1,4.363,4.363Z" transform="translate(-2.25 8.292)" fill="#fdfdfe"/>
      <path id="Path_275" data-name="Path 275" d="M32.34,25.429v19.46a4.362,4.362,0,0,1-4.363,4.363H23.613a4.362,4.362,0,0,1-4.363-4.363V25.429a4.376,4.376,0,0,1,4.363-4.363h4.363A4.376,4.376,0,0,1,32.34,25.429Z" transform="translate(17.837 1.841)" fill="#fdfdfe"/>
    </g>
  </g>
</svg>
