<svg id="Group_353" data-name="Group 353" xmlns="http://www.w3.org/2000/svg" xmlns:xlink="http://www.w3.org/1999/xlink" width="64.147" height="64.147" viewBox="0 0 64.147 64.147">
  <defs>
    <clipPath id="clip-path">
      <rect id="Rectangle_245" data-name="Rectangle 245" width="64.147" height="64.147" fill="#fdfdfe"/>
    </clipPath>
  </defs>
  <g id="Group_352" data-name="Group 352" clip-path="url(#clip-path)">
    <path id="Path_277" data-name="Path 277" d="M36.574,7.5H9.721A5.246,5.246,0,0,0,4.5,12.721v8.951a5.246,5.246,0,0,0,5.221,5.221H36.574A5.246,5.246,0,0,0,41.8,21.672V12.721A5.246,5.246,0,0,0,36.574,7.5m.746,14.172a.739.739,0,0,1-.746.746H9.721a.739.739,0,0,1-.746-.746V12.721a.739.739,0,0,1,.746-.746H36.574a.739.739,0,0,1,.746.746Z" transform="translate(8.926 14.877)" fill="#fdfdfe"/>
    <path id="Path_278" data-name="Path 278" d="M34.344,9.746V18.7a.739.739,0,0,1-.746.746H6.746A.739.739,0,0,1,6,18.7V9.746A.739.739,0,0,1,6.746,9H33.6a.739.739,0,0,1,.746.746" transform="translate(11.902 17.852)" fill="#fdfdfe"/>
    <path id="Path_279" data-name="Path 279" d="M36.574,0H9.721A5.246,5.246,0,0,0,4.5,5.221v8.951a5.246,5.246,0,0,0,5.221,5.221H36.574A5.246,5.246,0,0,0,41.8,14.172V5.221A5.246,5.246,0,0,0,36.574,0m.746,14.172a.739.739,0,0,1-.746.746H9.721a.739.739,0,0,1-.746-.746V5.221a.739.739,0,0,1,.746-.746H36.574a.739.739,0,0,1,.746.746Z" transform="translate(8.926)" fill="#fdfdfe"/>
    <path id="Path_280" data-name="Path 280" d="M34.344,2.246V11.2a.739.739,0,0,1-.746.746H6.746A.739.739,0,0,1,6,11.2V2.246A.739.739,0,0,1,6.746,1.5H33.6a.739.739,0,0,1,.746.746" transform="translate(11.902 2.975)" fill="#fdfdfe"/>
    <path id="Path_281" data-name="Path 281" d="M36.574,15H9.721A5.246,5.246,0,0,0,4.5,20.221v8.951a5.246,5.246,0,0,0,5.221,5.221H36.574A5.246,5.246,0,0,0,41.8,29.172V20.221A5.246,5.246,0,0,0,36.574,15m.746,14.172a.739.739,0,0,1-.746.746H9.721a.739.739,0,0,1-.746-.746V20.221a.739.739,0,0,1,.746-.746H36.574a.739.739,0,0,1,.746.746Z" transform="translate(8.926 29.754)" fill="#fdfdfe"/>
    <path id="Path_282" data-name="Path 282" d="M34.344,17.246V26.2a.739.739,0,0,1-.746.746H6.746A.739.739,0,0,1,6,26.2V17.246a.739.739,0,0,1,.746-.746H33.6a.739.739,0,0,1,.746.746" transform="translate(11.902 32.729)" fill="#fdfdfe"/>
    <path id="Path_283" data-name="Path 283" d="M2.233,14.421a2.213,2.213,0,0,1-1.581-.656,2.251,2.251,0,0,1,0-3.163L3.546,7.708.651,4.814A2.236,2.236,0,1,1,3.814,1.651L8.289,6.127a2.251,2.251,0,0,1,0,3.163L3.814,13.765a2.213,2.213,0,0,1-1.581.656" transform="translate(0.005 1.989)" fill="#fdfdfe"/>
    <path id="Path_284" data-name="Path 284" d="M20.733,29.421a2.213,2.213,0,0,1-1.581-.656,2.251,2.251,0,0,1,0-3.163l2.894-2.894-2.894-2.894a2.236,2.236,0,1,1,3.163-3.163l4.475,4.475a2.251,2.251,0,0,1,0,3.163l-4.475,4.475a2.213,2.213,0,0,1-1.581.656" transform="translate(36.702 31.743)" fill="#fdfdfe"/>
    <path id="Path_285" data-name="Path 285" d="M21.23,29.352H19.738a2.238,2.238,0,1,1,0-4.475H21.23a3.731,3.731,0,0,0,3.73-3.73V10.7a3.731,3.731,0,0,0-3.73-3.73H19.738a2.238,2.238,0,1,1,0-4.475H21.23a8.2,8.2,0,0,1,8.2,8.2V21.148a8.2,8.2,0,0,1-8.2,8.2" transform="translate(34.713 4.959)" fill="#fdfdfe"/>
    <path id="Path_286" data-name="Path 286" d="M9.7,36.852H8.2a8.2,8.2,0,0,1-8.2-8.2V18.2A8.2,8.2,0,0,1,8.2,10H9.7a2.238,2.238,0,0,1,0,4.475H8.2a3.731,3.731,0,0,0-3.73,3.73V28.648a3.731,3.731,0,0,0,3.73,3.73H9.7a2.238,2.238,0,1,1,0,4.475" transform="translate(0 19.836)" fill="#fdfdfe"/>
  </g>
</svg>
