<svg id="Group_157" data-name="Group 157" xmlns="http://www.w3.org/2000/svg" xmlns:xlink="http://www.w3.org/1999/xlink" width="152.686" height="152.686" viewBox="0 0 152.686 152.686">
  <defs>
    <clipPath id="clip-path">
      <rect id="Rectangle_140" data-name="Rectangle 140" width="152.686" height="152.686" fill="#fdfdfe"/>
    </clipPath>
  </defs>
  <g id="Group_156" data-name="Group 156" transform="translate(0 0)" clip-path="url(#clip-path)">
    <path id="Path_128" data-name="Path 128" d="M58.38,79.3c.391.107.782.213,1.191.3a3.914,3.914,0,0,0-1.191-.3" transform="translate(45.389 61.654)" fill="#fdfdfe"/>
    <path id="Path_129" data-name="Path 129" d="M75.211,84.09a38.721,38.721,0,0,1-7.661,2.382,41.647,41.647,0,0,0,7.661-2.382" transform="translate(52.519 65.378)" fill="#fdfdfe"/>
    <path id="Path_130" data-name="Path 130" d="M76.346,82.57a36.24,36.24,0,0,1-3.466,1.884c1.191-.587,2.346-1.209,3.466-1.884" transform="translate(56.663 64.197)" fill="#fdfdfe"/>
    <path id="Path_131" data-name="Path 131" d="M79.629,80.65a37.86,37.86,0,0,1-4.8,3.413,43.422,43.422,0,0,0,4.8-3.413" transform="translate(58.179 62.704)" fill="#fdfdfe"/>
    <path id="Path_132" data-name="Path 132" d="M58.38,79.3c.391.107.782.213,1.191.3a3.914,3.914,0,0,0-1.191-.3" transform="translate(45.389 61.654)" fill="#fdfdfe"/>
    <path id="Path_133" data-name="Path 133" d="M83.172,51.743c-.747-1.12-1.546-2.222-2.382-3.253a38.076,38.076,0,0,1,2.382,3.253" transform="translate(62.813 37.7)" fill="#fdfdfe"/>
    <path id="Path_134" data-name="Path 134" d="M85.605,68.95a36.367,36.367,0,0,1-1.155,3.573c.427-1.173.818-2.364,1.155-3.573" transform="translate(65.658 53.607)" fill="#fdfdfe"/>
    <path id="Path_135" data-name="Path 135" d="M86.052,65.28a38.427,38.427,0,0,1-.622,4.053c.267-1.333.48-2.684.622-4.053" transform="translate(66.42 50.754)" fill="#fdfdfe"/>
    <path id="Path_136" data-name="Path 136" d="M89.355,63.627l-12.62,12.6-6.328,6.328a5.19,5.19,0,0,1-3.733,1.582,5.327,5.327,0,0,1-3.768-1.564L53.432,73.1a5.326,5.326,0,0,1,7.537-7.519l5.688,5.688L76.735,61.192l5.084-5.084a5.326,5.326,0,0,1,7.537,7.519" transform="translate(40.436 42.506)" fill="#fdfdfe"/>
    <path id="Path_137" data-name="Path 137" d="M152.632,109.919a1.528,1.528,0,0,0-.018-.284,4.85,4.85,0,0,0-.053-.729v-.053c-.018-.373-.036-.729-.089-1.1a1.96,1.96,0,0,0-.036-.32c-.053-.515-.107-1.049-.178-1.564-.071-.391-.124-.782-.213-1.173-.071-.444-.16-.907-.267-1.351-.089-.462-.178-.924-.3-1.369-.089-.373-.2-.747-.3-1.12a2.368,2.368,0,0,0-.089-.338c-.018-.053-.036-.124-.053-.178,0-.018,0-.018-.018-.036a3.884,3.884,0,0,0-.178-.6c-.071-.284-.178-.551-.267-.818-.2-.587-.391-1.173-.622-1.742-.107-.249-.2-.5-.3-.747a5.78,5.78,0,0,0-.32-.764c0-.018-.018-.036-.018-.053-.213-.48-.427-.96-.658-1.422-.2-.409-.391-.835-.622-1.226-.213-.409-.427-.8-.658-1.209-.018-.036-.053-.089-.071-.124-.142-.267-.3-.533-.462-.8-.284-.462-.569-.907-.853-1.351-.747-1.12-1.546-2.222-2.382-3.253a8.573,8.573,0,0,0-.64-.764c-.018-.018-.036-.053-.053-.071-.231-.284-.48-.569-.729-.835-.373-.409-.747-.8-1.12-1.191q-.347-.373-.693-.693c-.3-.3-.6-.6-.924-.871-.107-.089-.2-.2-.3-.284-.373-.338-.747-.675-1.138-1a2.117,2.117,0,0,1-.32-.267c-.3-.249-.6-.48-.924-.711-.32-.249-.622-.48-.942-.711-.036-.036-.071-.053-.107-.089a1.2,1.2,0,0,0-.2-.124c-.373-.284-.764-.551-1.155-.8a.017.017,0,0,0-.018-.018c-.444-.284-.889-.569-1.333-.835a10.017,10.017,0,0,0-.942-.551.135.135,0,0,0-.071-.036c-.142-.071-.284-.16-.409-.231a3.041,3.041,0,0,0-.409-.231c-.729-.391-1.458-.764-2.2-1.1-.053-.018-.089-.036-.142-.053-.338-.16-.675-.32-1.013-.462a10.791,10.791,0,0,0-1.049-.427c-.622-.249-1.262-.48-1.92-.711-.089-.036-.178-.053-.267-.089-.018,0-.053-.018-.071-.018a.136.136,0,0,1-.089-.036.519.519,0,0,0-.16-.036c-.249-.089-.5-.16-.764-.249l-.8-.213c-.462-.124-.942-.249-1.422-.373-.053-.018-.107-.018-.16-.036s-.107-.018-.16-.036a.639.639,0,0,0-.2-.036c-.249-.071-.5-.107-.747-.16s-.5-.089-.764-.142a2.286,2.286,0,0,0-.338-.071c-.569-.107-1.155-.2-1.742-.267V19.535c0-.391-.018-.8-.036-1.191a19.716,19.716,0,0,0-.32-2.506c-.071-.409-.16-.8-.267-1.191a20.3,20.3,0,0,0-1.742-4.426,18.3,18.3,0,0,0-.978-1.6c-.355-.533-.729-1.031-1.12-1.511A19.75,19.75,0,0,0,107.7,2.791c-.444-.267-.889-.5-1.333-.729-.444-.213-.889-.427-1.351-.622a1.679,1.679,0,0,0-.16-.053c-.427-.178-.889-.338-1.333-.48-.142-.036-.284-.089-.427-.124a3.547,3.547,0,0,0-.622-.16c-.213-.071-.444-.124-.675-.178-.178-.036-.355-.071-.551-.107s-.427-.071-.64-.107c-.32-.053-.64-.089-.978-.124-.267-.036-.551-.053-.853-.071C98.4.018,98.01,0,97.637,0H19.517q-.667,0-1.333.053a15.671,15.671,0,0,0-2.257.284L15.34.444a18.353,18.353,0,0,0-3.093.96c-.409.16-.8.338-1.191.515-.427.213-.835.427-1.244.675-.409.231-.818.48-1.209.747q-.773.533-1.493,1.12A13.2,13.2,0,0,0,6.061,5.4c-.338.32-.658.658-.978,1a19.515,19.515,0,0,0-2.257,3q-.48.8-.907,1.653c-.16.338-.3.693-.444,1.031-.107.231-.178.444-.267.675a9.808,9.808,0,0,0-.32.942c-.036.124-.071.249-.107.355a4.586,4.586,0,0,0-.16.622c-.071.213-.124.444-.178.658-.036.213-.089.427-.124.658-.036.2-.071.391-.089.587a9.148,9.148,0,0,0-.124.942c-.036.3-.053.587-.071.871C.018,18.77,0,19.161,0,19.535V133.151c0,.373.018.764.036,1.138.018.284.036.569.071.871a9.147,9.147,0,0,0,.124.942c.018.2.053.391.089.587.036.231.089.444.124.658.107.427.213.853.338,1.28.036.107.071.231.107.355.089.3.2.6.3.889q.293.8.64,1.546a11.616,11.616,0,0,0,.533,1.049,15.3,15.3,0,0,0,1.155,1.849q.48.693,1.013,1.333c.178.213.355.427.551.64.32.338.64.675.978,1a13.2,13.2,0,0,0,1.049.942q.72.587,1.493,1.12c.391.267.8.515,1.209.747.409.249.818.462,1.244.675.391.178.782.355,1.191.515h.018c.48.2.96.373,1.458.533.515.16,1.066.3,1.618.427l.587.107a15.673,15.673,0,0,0,2.257.284q.667.053,1.333.053h78.12a18.672,18.672,0,0,0,1.991-.107c.338-.036.658-.071.978-.124.249-.036.48-.071.711-.124a5.347,5.347,0,0,0,.729-.16,12.62,12.62,0,0,0,1.351-.355h.071c.053.018.089.018.142.036a36.749,36.749,0,0,0,3.964.6c.107.018.2.018.3.036.355.036.711.071,1.066.089h.178c.16.018.32.018.48.036a3.862,3.862,0,0,0,.462.018c.587.036,1.173.053,1.777.053a40.57,40.57,0,0,0,4.177-.213c1.369-.142,2.72-.355,4.053-.622a41.647,41.647,0,0,0,7.661-2.382c.622-.267,1.226-.533,1.813-.818,1.191-.587,2.346-1.209,3.466-1.884a43.424,43.424,0,0,0,4.8-3.413c1.013-.835,1.973-1.706,2.9-2.631.409-.409.8-.818,1.191-1.244.338-.355.658-.729.978-1.1.071-.089.142-.16.213-.249.249-.284.5-.6.747-.907.053-.071.107-.124.16-.2l.16-.213c.178-.213.355-.444.515-.675.16-.213.32-.444.48-.675.338-.462.64-.924.96-1.4s.622-.96.907-1.458a7.986,7.986,0,0,0,.427-.747c.142-.249.284-.515.427-.764.267-.515.533-1.031.782-1.546.178-.373.355-.747.515-1.12.338-.764.64-1.529.942-2.293.427-1.173.818-2.364,1.155-3.573.107-.409.213-.818.3-1.226.107-.409.2-.835.284-1.244.267-1.333.48-2.684.622-4.053a40.569,40.569,0,0,0,.213-4.177c0-.64-.018-1.3-.053-1.937M33.719,35.514H83.435a5.324,5.324,0,1,1,0,10.647H33.719a5.324,5.324,0,0,1,0-10.647m0,28.4H83.435a5.324,5.324,0,1,1,0,10.647H33.719a5.324,5.324,0,0,1,0-10.647m21.312,39.051H33.719a5.324,5.324,0,0,1,0-10.647H55.031a5.324,5.324,0,1,1,0,10.647m60.1,38.891a28.9,28.9,0,0,1-3.288.178,29.918,29.918,0,0,1-6.843-.782h-.036c-.409-.089-.8-.2-1.191-.3h-.053c-.018,0-.018,0-.036-.018a30.194,30.194,0,0,1,8.159-59.261,29.314,29.314,0,0,1,5.332.48,30.18,30.18,0,0,1-2.044,59.706" transform="translate(0 0)" fill="#fdfdfe"/>
    <path id="Path_138" data-name="Path 138" d="M59.571,79.6c-.409-.089-.8-.2-1.191-.3a3.914,3.914,0,0,1,1.191.3" transform="translate(45.389 61.654)" fill="#fdfdfe"/>
  </g>
</svg>
