<svg xmlns="http://www.w3.org/2000/svg" width="94.501" height="152.686" viewBox="0 0 94.501 152.686">
  <g id="Group_321" data-name="Group 321" transform="translate(-97.556)">
    <path id="Path_237" data-name="Path 237" d="M120.454,68.1a32.232,32.232,0,1,1,45.556-6.174c.078.063.157.122.234.186q.541-.03,1.086-.03a19.562,19.562,0,0,1,9.47,2.45,42.644,42.644,0,1,0-57.207,15.453c.286-.033.572-.062.86-.081Z" fill="#fdfdfe"/>
    <path id="Path_238" data-name="Path 238" d="M185.254,72.585a19.61,19.61,0,0,1,19.587,19.588v8.765a23.435,23.435,0,1,0-39.175-.491V92.172A19.61,19.61,0,0,1,185.254,72.585Z" transform="translate(-45.212 -45.213)" fill="#fdfdfe"/>
    <path id="Path_239" data-name="Path 239" d="M214.489,164.117a11.062,11.062,0,0,0-2.687.331,11.075,11.075,0,0,0-15.115-8.615,11.062,11.062,0,0,0-12.05-5.058V131.392a11.081,11.081,0,0,0-22.162,0V176l-.412-.4a9.828,9.828,0,0,0-6.779-2.8h-.1a9.87,9.87,0,0,0-9.361,13L149.7,197.4a45.126,45.126,0,0,0,9.929,16.647l8.759,9.351v13.723h45.4V223.825l11.779-20.807V175.2A11.094,11.094,0,0,0,214.489,164.117Z" transform="translate(-33.514 -84.433)" fill="#fdfdfe"/>
  </g>
</svg>
