<svg xmlns="http://www.w3.org/2000/svg" width="118.586" height="152.986" viewBox="0 0 118.586 152.986">
  <g id="Group_97" data-name="Group 97" transform="translate(-374.83 -5069.59)">
    <g id="Glyph" transform="translate(374.83 5069.59)">
      <path id="Path_42" data-name="Path 42" d="M23.2,4A8.2,8.2,0,0,0,15,12.2V70.5a10.532,10.532,0,0,1,4.672,2.634L25.928,79.4V77.761a2.732,2.732,0,0,1,2.732-2.732H45.051a2.732,2.732,0,0,1,2.732,2.732V94.153a2.732,2.732,0,0,1-2.732,2.732h-12.9a10.2,10.2,0,0,1-7.25,4.893,10.382,10.382,0,0,1,.59,3.3,10.256,10.256,0,0,1-7.559,9.974l4.486,4.486a10.351,10.351,0,0,1,2.65,4.663H86.029V12.2a8.2,8.2,0,0,0-8.2-8.2h-8.2v8.2a2.732,2.732,0,0,1-2.732,2.732H34.123A2.732,2.732,0,0,1,31.391,12.2V4ZM42.319,118.74H36.855v-5.464h5.464Zm10.928,0H47.783v-5.464h5.464Zm10.928,0H58.71v-5.464h5.464ZM75.1,94.153a2.732,2.732,0,0,1-2.732,2.732H55.979a2.732,2.732,0,0,1-2.732-2.732V77.761a2.732,2.732,0,0,1,2.732-2.732H72.37A2.732,2.732,0,0,1,75.1,77.761Zm0-84.689h5.464v5.464H75.1ZM58.71,25.855h5.464v5.464H58.71ZM55.979,47.71H72.37A2.732,2.732,0,0,1,75.1,50.442V66.834a2.732,2.732,0,0,1-2.732,2.732H55.979a2.732,2.732,0,0,1-2.732-2.732V50.442A2.732,2.732,0,0,1,55.979,47.71Zm-8.2-21.855h5.464v5.464H47.783Zm-10.928,0h5.464v5.464H36.855Zm8.2,21.855a2.732,2.732,0,0,1,2.732,2.732V66.834a2.732,2.732,0,0,1-2.732,2.732H28.66a2.732,2.732,0,0,1-2.732-2.732V50.442A2.732,2.732,0,0,1,28.66,47.71Z" transform="translate(0.905 -4)" fill="#fdfdfe"/>
      <path id="Path_43" data-name="Path 43" d="M21,22H31.928V32.928H21Z" transform="translate(11.297 27.174)" fill="#fdfdfe"/>
      <path id="Path_44" data-name="Path 44" d="M31.928,42.928V32H21v4.543a10.409,10.409,0,0,1,2.289,6.384Z" transform="translate(11.297 44.493)" fill="#fdfdfe"/>
      <path id="Path_45" data-name="Path 45" d="M23,4H50.319V9.464H23Z" transform="translate(14.76 -4)" fill="#fdfdfe"/>
      <path id="Path_46" data-name="Path 46" d="M31,32H41.928V42.928H31Z" transform="translate(28.616 44.493)" fill="#fdfdfe"/>
      <path id="Path_47" data-name="Path 47" d="M31,22H41.928V32.928H31Z" transform="translate(28.616 27.174)" fill="#fdfdfe"/>
      <path id="Path_48" data-name="Path 48" d="M9.18,40.17A5.035,5.035,0,0,0,10.647,43.7L21.575,54.63a5,5,0,1,0,7.056-7.065L17.275,36.26a4.975,4.975,0,0,0-6.636.377A5.035,5.035,0,0,0,9.18,40.17Z" transform="translate(-9.175 49.983)" fill="#fdfdfe"/>
      <path id="Path_49" data-name="Path 49" d="M23.2,66.391H77.834a8.2,8.2,0,0,0,8.2-8.2V50H25.067a10.3,10.3,0,0,1-10.045,7.72H15V58.2A8.2,8.2,0,0,0,23.2,66.391ZM45.051,55.464H55.979v5.464H45.051Z" transform="translate(0.905 75.668)" fill="#fdfdfe"/>
      <path id="Path_50" data-name="Path 50" d="M79.258,103.693a2.732,2.732,0,0,1-.718-1.27L73.075,80.567a2.767,2.767,0,0,1-.055-1.049L75.69,60.837,70.305,31.221C70.057,29.6,68.956,28,67.53,28A2.732,2.732,0,0,0,64.8,30.716V96.3a13.676,13.676,0,0,1-13.66,13.66H30.414l5.464,5.464H90.986Z" transform="translate(27.601 37.566)" fill="#fdfdfe"/>
      <path id="Path_51" data-name="Path 51" d="M10.645,51.7,21.573,62.628a5,5,0,0,0,7.062-7.065L17.707,44.635A5,5,0,1,0,10.641,51.7Z" transform="translate(-9.178 63.84)" fill="#fdfdfe"/>
      <path id="Path_52" data-name="Path 52" d="M17.916,36.085V22.068a5.008,5.008,0,0,0-2.871-.962,3.877,3.877,0,0,0-1.328.229,5.155,5.155,0,0,0-3.429,3.789,5.018,5.018,0,0,0,1.32,4.644Z" transform="translate(-7.474 25.626)" fill="#fdfdfe"/>
      <path id="Path_53" data-name="Path 53" d="M31.642,49.629a4.726,4.726,0,0,0,1.131-1.759,4.994,4.994,0,0,0,.336-1.77,5.057,5.057,0,0,0-1.486-3.551L20.714,31.64a4.986,4.986,0,0,0-3.521-1.44,5.223,5.223,0,0,0-3.551,1.44,5.04,5.04,0,0,0-1.467,3.532,4.958,4.958,0,0,0,1.467,3.53l11.37,11.346A5.013,5.013,0,0,0,31.642,49.629Z" transform="translate(-3.989 41.376)" fill="#fdfdfe"/>
    </g>
  </g>
</svg>
