<svg xmlns="http://www.w3.org/2000/svg" width="90" height="53.262" viewBox="0 0 90 53.262">
  <path id="Path_270" data-name="Path 270" d="M64.159.53c7.8,1.811,10.788,6.373,14.53,12.653H64.159Zm-45.6,13.181c1.528,0,2.637.737,2.637,2.461a2.637,2.637,0,0,1-2.629,2.637H2.636a2.637,2.637,0,0,0,0,5.273h23.73a2.637,2.637,0,1,1,.01,5.273H2.636a2.637,2.637,0,0,0,0,5.273h5.8v7.91a2.637,2.637,0,0,0,2.637,2.637h5.3a10.109,10.109,0,0,0,19.81,0H62.956a10.109,10.109,0,0,0,19.81,0h4.6A2.637,2.637,0,0,0,90,42.539V26.719c0-7.736-8.16-8.25-8.168-8.262H61.523a2.637,2.637,0,0,1-2.637-2.637V0H11.074A2.637,2.637,0,0,0,8.437,2.637v5.8H5.273a2.637,2.637,0,1,0,0,5.273ZM76.279,39.736a4.834,4.834,0,1,1-8.252,3.418A4.835,4.835,0,0,1,76.279,39.736Zm-46.582,0a4.834,4.834,0,1,1-8.252,3.418A4.835,4.835,0,0,1,29.7,39.736Zm0,0" transform="translate(0.001)" fill="#fdfdfe" fill-rule="evenodd"/>
</svg>
